{"title":"Robert McGinnis: Painting the Last Rose of Summer","uid":5392734,"size":1000474183,"categoryP":"video","categoryS":"other","magnet":"?xt=urn:btih:e16ce5cfc0a70b8b7fa38b7aa49a05ca6d37f072&amp;dn=Robert+McGinnis%3A+Painting+the+Last+Rose+of+Summer&amp;tr=udp%3A%2F%2Ftracker.openbittorrent.com%3A80&amp;tr=udp%3A%2F%2Fopen.demonii.com%3A1337&amp;tr=udp%3A%2F%2Ftracker.coppersurfer.tk%3A6969&amp;tr=udp%3A%2F%2Fexodus.desync.com%3A6969","seeders":0,"leechers":1,"uploader":"CrowTR","files":1,"time":1267120035,"description":"A documentary film, Robert McGinnis: Painting the Last Rose of Summer, by Paul Jilbert.\n\nMcGinnis is a personal friend of the family, my father is in it for a few minutes.\n\n\nFormat                           : MPEG-4\nFormat profile                   : Base Media / Version 2\nCodec ID                         : mp42\nFile size                        : 954 MiB\nDuration                         : 1h 23mn\nOverall bit rate                 : 1 601 Kbps\n\nVideo\nID                               : 1\nFormat                           : MPEG-4 Visual\nFormat profile                   : Simple@L3\nFormat settings, BVOP            : No\nFormat settings, QPel            : No\nFormat settings, GMC             : No warppoints\nFormat settings, Matrix          : Default (H.263)\nCodec ID                         : 20\nDuration                         : 1h 23mn\nBit rate mode                    : Variable\nBit rate                         : 1 499 Kbps\nMaximum bit rate                 : 3 340 Kbps\nWidth                            : 320 pixels\nHeight                           : 240 pixels\nDisplay aspect ratio             : 4:3\nFrame rate mode                  : Constant\nFrame rate                       : 29.970 fps\nResolution                       : 24 bits\nColorimetry                      : 4:2:0\nScan type                        : Progressive\nBits/(Pixel*Frame)               : 0.651\nStream size                      : 894 MiB (94%)\nWriting library                  : em4v 4.1.6.5\nLanguage                         : English\nEncoded date                     : UTC 2008-06-25 15:13:31\nTagged date                      : UTC 2008-06-25 15:43:23\n\nAudio\nID                               : 2\nFormat                           : AAC\nFormat/Info                      : Advanced Audio Codec\nFormat version                   : Version 4\nFormat profile                   : LC\nFormat settings, SBR             : Yes\nFormat settings, PS              : No\nCodec ID                         : 40\nDuration                         : 1h 23mn\nBit rate mode                    : Variable\nBit rate                         : 96.0 Kbps\nMaximum bit rate                 : 114 Kbps\nChannel(s)                       : 2 channels\nChannel positions                : L R\nSampling rate                    : 48.0 KHz\nResolution                       : 16 bits\nStream size                      : 57.8 MiB (6%)\nLanguage                         : English\nEncoded date                     : UTC 2008-06-25 15:13:31\nTagged date                      : UTC 2008-06-25 15:43:23","torrent":{"xt":"urn:btih:e16ce5cfc0a70b8b7fa38b7aa49a05ca6d37f072","amp;dn":"Robert+McGinnis%3A+Painting+the+Last+Rose+of+Summer","amp;tr":["udp%3A%2F%2Ftracker.openbittorrent.com%3A80","udp%3A%2F%2Fopen.demonii.com%3A1337","udp%3A%2F%2Ftracker.coppersurfer.tk%3A6969","udp%3A%2F%2Fexodus.desync.com%3A6969"],"infoHash":"e16ce5cfc0a70b8b7fa38b7aa49a05ca6d37f072","infoHashBuffer":{"type":"Buffer","data":[225,108,229,207,192,167,11,139,127,163,139,122,164,154,5,202,109,55,240,114]},"announce":[],"urlList":[]}}